<svg width="918" height="300" viewBox="0 0 918 300" fill="none" xmlns="http://www.w3.org/2000/svg">
<g clip-path="url(#clip0_1_90)">
<path d="M122.82 88.5678C114.458 88.5678 107.68 87.2674 107.68 85.6635C107.68 84.0596 114.458 82.7591 122.82 82.7591C131.182 82.7591 137.96 84.0596 137.96 85.6635C137.96 87.2674 131.182 88.5678 122.82 88.5678ZM106.574 81.2397L101.227 64.9151L101.964 64.6238L111.069 70.7685L111.145 71.3896L109.067 72.3173C108.655 72.5315 108.644 72.8565 108.86 73.0554L113.988 77.6922L114.502 77.6432L118.399 71.9104C118.664 71.5371 118.562 71.1718 118.101 71.0934L115.487 70.6614V70.0066L122.255 60.4429H123.366L130.139 70.0066V70.6614L127.524 71.0934C127.048 71.1687 126.956 71.5371 127.226 71.9104L131.115 77.6432L131.637 77.6922L137.134 73.0554C137.34 72.8595 137.34 72.5315 136.921 72.3173L134.846 71.3896L134.925 70.7685L143.659 64.6238L144.398 64.9151L139.062 81.2397C136.343 80.0225 130.114 79.1621 122.814 79.1315C115.517 79.1645 109.284 80.0255 106.574 81.2397ZM165.118 195.173C165.118 196.778 158.336 198.078 149.971 198.078C141.605 198.078 134.824 196.778 134.824 195.173C134.824 193.569 141.605 192.268 149.971 192.268C158.336 192.268 165.118 193.569 165.118 195.173ZM170.812 174.132L171.555 174.423L166.206 190.752C163.499 189.533 157.265 188.675 149.968 188.642C142.676 188.675 136.442 189.533 133.727 190.752L128.376 174.423L129.113 174.132L138.225 180.273L138.297 180.896L136.222 181.831C135.811 182.031 135.8 182.366 136.016 182.565L141.143 187.194L141.664 187.151L145.551 181.414C145.822 181.047 145.731 180.678 145.254 180.599L142.645 180.173V179.506L149.409 169.949H150.524L157.286 179.506V180.173L154.676 180.599C154.214 180.678 154.114 181.047 154.383 181.414L158.268 187.151L158.79 187.194L164.285 182.565C164.491 182.366 164.491 182.031 164.082 181.831L162.011 180.896L162.078 180.273L170.812 174.132ZM177.06 82.753C185.419 82.753 192.195 84.0559 192.195 85.6635C192.195 87.2711 185.419 88.574 177.06 88.574C168.701 88.574 161.925 87.2711 161.925 85.6635C161.925 84.0559 168.701 82.753 177.06 82.753ZM160.812 81.2397L155.464 64.9151L156.204 64.6238L165.307 70.7685L165.387 71.3896L163.31 72.2635C162.895 72.466 162.887 72.7947 163.102 72.9935L168.233 77.6922L168.748 77.6432L172.639 71.9104C172.903 71.5371 172.807 71.1718 172.351 71.0934L169.727 70.6614V70.0066L176.504 60.4429H177.608L184.38 70.0066V70.6614L181.768 71.0934C181.299 71.1687 181.2 71.5371 181.473 71.9104L185.358 77.6432L185.874 77.6922L191.372 73.0554C191.577 72.8595 191.577 72.5315 191.157 72.3173L189.08 71.3896L189.169 70.7685L197.901 64.6238L198.638 64.9151L193.297 81.2397C190.58 80.0225 184.354 79.1621 177.053 79.1315C169.759 79.1645 163.518 80.0255 160.812 81.2397ZM139.576 233.534C139.576 235.197 138.224 236.549 136.554 236.549C134.894 236.549 133.554 235.197 133.554 233.534C133.554 231.872 134.894 230.513 136.554 230.513C138.224 230.513 139.576 231.876 139.576 233.534ZM170.151 238.553C170.151 240.217 168.802 241.567 167.139 241.567C165.473 241.567 164.121 240.217 164.121 238.553C164.121 236.888 165.473 235.537 167.139 235.537C168.802 235.537 170.151 236.888 170.151 238.553ZM152.867 20.667C152.867 22.3321 151.517 23.6815 149.852 23.6815C148.187 23.6815 146.838 22.3321 146.838 20.667C146.838 19.0019 148.187 17.6525 149.852 17.6525C151.517 17.6525 152.867 19.0019 152.867 20.667ZM224.62 48.7613C224.62 50.4252 223.271 51.7746 221.608 51.7746C219.942 51.7746 218.593 50.4252 218.593 48.7613C218.593 47.0949 219.942 45.7456 221.608 45.7456C223.271 45.7456 224.62 47.0949 224.62 48.7613ZM60.1596 177.708C62.865 175.803 65.0289 174.497 67.0306 174.497C69.9656 174.504 72.0952 176.409 73.4103 178.302C74.5681 179.971 75.155 181.75 75.1476 183.599C75.1476 185.708 74.4408 187.42 70.6681 190.029L59.7845 197.79L57.7791 194.901C57.7791 194.901 68.9308 186.961 69.1039 186.838C71.0353 185.508 71.8584 184.529 71.8584 183.006C71.8584 182.042 71.5089 180.997 70.8088 179.989C69.7226 178.422 68.3157 177.92 67.0826 177.913C65.9671 177.913 64.7682 178.699 62.6141 180.196L52.3853 187.137L50.4117 184.305L60.1596 177.708ZM48.6279 167.404L63.6049 161.473L64.7199 164.531L44.2414 172.394L43.0964 169.259L55.0094 154.766L39.7325 160.104L38.6224 157.05L59.331 149.786L60.4821 152.925L48.6279 167.404ZM57.7356 140.819L36.0479 144.04L35.532 140.567L57.2197 137.346L57.7356 140.819ZM56.4456 123.179L34.2292 129.808L34.2524 126.159L52.2666 121.113L34.8809 114.419L34.966 110.784L56.5931 119.566L56.4456 123.179ZM61.5757 71.7654C61.2672 71.8541 60.9043 72.0438 60.5396 72.2965C60.6271 71.9061 60.7709 71.5298 60.7734 71.124C60.7801 70.5066 60.6914 69.8934 60.5023 69.3408C60.0868 68.0551 59.1676 67.0117 57.784 66.2449C56.7473 65.6721 55.7125 65.379 54.6654 65.379C51.5634 65.3875 50.1302 67.1585 48.1475 70.7318L45.5754 75.3447L64.8869 85.8171L66.5588 82.8093L58.5269 78.4314L58.9975 77.5643C60.356 75.1195 60.8076 74.7474 64.2646 75.0405L70.5151 75.5986L72.302 72.3553L65.0932 71.7372C63.6428 71.5995 62.5052 71.4979 61.5757 71.7654ZM56.412 76.24L55.9683 77.0533L49.79 73.7365L50.7618 72.0218C52.0389 69.6884 52.9618 68.7986 54.3191 68.8053C54.8197 68.8053 55.4549 68.9363 56.0956 69.2826C56.9168 69.7416 57.5471 70.4998 57.7797 71.3119C57.869 71.6283 57.9039 71.9465 57.9039 72.2592C57.8984 73.5627 57.172 74.8686 56.412 76.24ZM81.4447 32.2868L94.7412 49.7086L91.9507 51.8388L78.6541 34.417L81.4447 32.2868ZM100.735 24.0162L109.471 40.7942L106.362 42.4202L97.6248 25.6349L92.07 28.5233L90.687 25.8613L104.864 18.4829L106.241 21.1468L100.735 24.0162ZM129.751 10.7876L126.778 25.4427L129.185 33.7751L125.839 34.7353L123.487 26.4757L113.08 15.6196L116.683 14.5701L124.172 22.3707L126.058 11.8169L129.751 10.7876ZM204.063 22.8994L214.524 29.0679L213.01 31.6522L205.529 27.2443L202.455 32.4631L209.487 36.6121L208.007 39.142L200.963 34.9935L195.933 43.5487L192.932 41.7758L204.063 22.8994ZM180.13 13.5787C175.553 13.5787 171.584 16.6544 169.973 22.1179C169.618 23.329 169.398 24.529 169.398 25.6936C169.398 27.8844 169.768 29.6205 170.657 31.2563C172.687 34.9696 176.396 36.2333 179.216 36.2333C180.81 36.2333 182.345 35.8668 183.753 35.0963C187.451 33.0756 189.891 28.3825 189.891 23.8902C189.891 21.9344 189.517 20.1015 188.652 18.5282C186.871 15.3001 183.573 13.5787 180.13 13.5787ZM179 33.1276C177.419 33.1276 175.117 32.3523 173.838 30.0103C173.215 28.8782 172.942 27.5038 172.942 26.0804C172.942 22.1571 175.553 16.6507 180.337 16.6507C183.017 16.6507 186.382 18.6426 186.382 23.6025C186.382 26.7572 184.16 33.1276 179 33.1276ZM58.35 105.932L37.1439 100.12L40.7655 87.943L43.6459 88.7539L40.9748 97.5318L46.8232 99.1363L49.0838 91.1662L51.9061 91.9697L49.6566 99.9117L56.2712 101.725L58.7264 93.0633L61.6644 93.8974L58.35 105.932ZM82.9721 57.8482C82.9721 59.7068 82.2414 61.359 80.785 62.9948C77.9938 66.1225 74.2291 66.4689 74.2291 66.4689L73.4849 63.5303C75.7039 63.0144 77.3837 62.1674 78.3941 61.0255C79.2012 60.1314 79.5953 59.1297 79.5953 58.2497C79.5953 57.4223 79.2416 56.647 78.5709 56.0479C78.0177 55.5577 77.3568 55.387 76.6261 55.3998C75.2198 55.3998 73.5296 56.2051 72.1447 56.781C69.4772 57.8837 66.6671 58.7692 64.1532 56.5215C62.8773 55.3796 62.1962 53.9433 62.1962 52.3492C62.1962 50.6608 62.8608 48.8678 64.2842 47.2773C67.328 43.865 70.4429 44.0945 70.4429 44.0945L70.9698 46.9927C70.9698 46.9927 68.574 47.0643 66.6989 49.1725C65.8783 50.0911 65.4628 51.0457 65.4628 51.9061C65.4628 52.6227 65.7443 53.239 66.3 53.7359C67.8182 55.0908 70.4129 53.5884 72.0328 52.9373C73.2787 52.4196 75.0522 51.6999 76.8391 51.6999C78.1505 51.6999 79.5262 52.0763 80.7746 53.1949C82.2378 54.4947 82.9721 56.1299 82.9721 57.8482ZM275.557 125.365C275.557 56.2351 219.233 0 149.997 0C80.7678 0 24.4434 56.2321 24.4434 125.365C24.4495 166.832 44.9213 205.485 79.2312 228.902C82.6086 241.469 94.0962 250.761 107.76 250.761C111.454 250.761 115.033 250.063 118.446 248.749C123.036 250.263 127.786 251.521 132.511 252.493C131.18 256.304 129.233 259.907 127.377 263.038C127.377 263.038 127.426 263.024 127.488 263.01C127.447 263.038 127.414 263.055 127.377 263.075L129.991 265.686C130.667 265.328 131.415 265.098 132.23 265.098C134.812 265.098 136.911 267.202 136.911 269.793C136.911 272.37 134.812 274.48 132.23 274.48C129.97 274.48 127.989 273.037 126.956 271.483C126.956 271.483 126.344 273.599 126.344 276.376C126.326 285.383 136.153 295.677 149.784 300C163.414 295.767 173.242 285.403 173.237 276.389C173.237 273.291 172.616 271.483 172.616 271.483C171.571 272.742 169.877 274.48 167.319 274.48C164.731 274.48 162.634 272.37 162.634 269.793C162.634 267.206 164.731 265.098 167.319 265.098C168.22 265.098 169.054 265.365 169.774 265.822L172.315 263.275C172.38 263.295 172.413 263.299 172.413 263.299C170.973 259.87 169.927 256.715 169.211 253.678C191.788 250.644 210.841 241.089 225.983 225.164L225.971 225.151C257.487 201.206 275.557 164.884 275.557 125.365ZM107.766 247.235C93.5106 247.235 81.914 235.606 81.914 221.314C81.914 216.834 83.059 212.618 85.0583 208.935C86.3838 210.15 87.8072 211.399 89.2887 212.665C88.0293 215.328 87.3072 218.278 87.3072 221.398C87.3072 229.177 91.2262 235.597 98.6535 239.98C102.91 242.487 107.737 244.761 112.85 246.74C111.178 247.068 109.49 247.235 107.766 247.235ZM150.003 209.518C144.626 209.518 139.32 209.001 134.13 208.006C129.128 198.185 118.854 191.856 107.765 191.856C105.04 191.856 102.412 192.264 99.9117 192.947C78.5856 177.108 65.8716 151.92 65.8716 125.364C65.8716 78.9632 103.61 41.2091 150.003 41.2091C196.388 41.2091 234.133 78.9632 234.133 125.364C234.134 171.761 196.389 209.518 150.003 209.518ZM168.722 211.013C166.196 214.613 164.704 219.622 164.256 224.685C156.292 222.636 149.052 219.873 142.756 217.004C143.954 214.68 147.393 213.039 149.999 213.039C156.429 213.039 162.687 212.323 168.722 211.013ZM142.055 212.672C140.985 213.468 140.119 214.422 139.51 215.464C136.337 213.93 132.341 211.935 129.727 210.475C133.431 211.291 138.254 212.323 142.055 212.672ZM107.766 195.385C116.43 195.385 124.532 199.829 129.288 206.945C125.118 205.89 121.038 204.515 117.049 202.82L117.036 202.84L116.911 202.766C114.118 201.453 111.132 200.79 108.031 200.79C101.134 200.79 95.0252 204.166 91.2457 209.35C89.6626 208.469 88.0783 207.544 86.5208 206.576C91.1925 199.82 98.965 195.385 107.766 195.385ZM167.325 261.484C162.694 261.484 158.893 264.759 158.893 269.793C158.893 274.707 162.748 278.083 167.325 278.083C168.013 278.083 168.681 277.968 169.322 277.809C168.368 284.771 160.25 292.566 149.791 296.058C139.422 292.589 131.311 284.734 130.238 277.809C130.883 277.976 131.541 278.083 132.238 278.083C137.226 278.083 140.659 274.593 140.659 269.793C140.659 265.197 137.063 261.604 132.424 261.507C133.832 258.909 135.19 256.156 136.194 253.201C141.952 254.207 147.623 254.749 152.897 254.749C157.224 254.749 161.416 254.515 165.523 254.1C166.064 256.472 166.871 258.962 167.825 261.527C167.656 261.515 167.49 261.484 167.325 261.484ZM152.892 251.226C136.057 251.226 115.04 245.501 100.604 236.986C96.2387 234.403 91.0132 229.605 91.0132 221.405C91.0132 219.194 91.4483 217.071 92.2169 215.133C97.6064 219.587 103.169 223.765 106.674 225.677C107.472 226.112 107.936 226.333 108.882 226.333C111.117 226.333 112.938 224.505 112.938 222.255C112.938 220.541 112.012 219.143 110.465 218.467C107.475 217.168 101.228 214.583 94.4946 211.09C97.6107 206.986 102.514 204.313 108.031 204.313C110.555 204.313 112.984 204.855 115.245 205.927L119.869 208.618C134.541 217.583 172.285 240.565 217.858 227.927C200.56 243.532 179.251 251.226 152.892 251.226ZM223.579 222.462C203.179 229.682 184.143 229.187 167.899 225.56C168.431 218.307 171.437 210.555 176.022 209.107C211.799 198.014 237.852 164.672 237.852 125.365C237.852 77.0147 198.438 37.6824 150.003 37.6824C101.565 37.6824 62.1619 77.0147 62.1619 125.365C62.1619 152.258 74.7168 177.805 95.8623 194.368C90.8498 196.574 86.56 200.146 83.4629 204.584C81.8626 203.495 80.3187 202.364 78.8861 201.185L78.0875 201.985C79.0433 203.144 80.5347 204.675 82.3149 206.376C79.7134 210.755 78.2043 215.858 78.2043 221.31C78.2043 222.159 78.2576 222.988 78.3304 223.821C46.8563 200.886 28.1543 164.427 28.1543 125.36C28.153 58.1842 82.8179 3.52915 150.003 3.52915C217.189 3.52915 271.846 58.1842 271.846 125.365C271.846 163.842 254.253 199.197 223.579 222.462Z" fill="white"/>
<path d="M243.528 84.5956C242.061 84.7975 240.615 84.7051 239.187 84.3184C237.779 83.929 236.481 83.2133 235.294 82.1713C234.135 81.1449 233.177 79.7603 232.42 78.0174C231.361 75.5774 231.266 73.617 232.135 72.1363C233.032 70.6713 234.659 69.7764 237.017 69.4518L250.688 67.5694L251.763 70.0461L238.003 71.9408C236.279 72.1782 235.125 72.7843 234.54 73.7592C233.964 74.7524 234.05 76.1113 234.798 77.8358C235.316 79.0283 235.962 79.9601 236.736 80.6312C237.538 81.3179 238.421 81.7796 239.384 82.0164C240.368 82.2504 241.395 82.2937 242.465 82.1464L256.195 80.2558L257.258 82.705L243.528 84.5956Z" fill="white"/>
<path d="M242.763 111.414L242.142 108.325L257.656 96.2752L257.632 96.1575C257.277 96.1936 256.881 96.2316 256.446 96.2713C256.014 96.3307 255.54 96.3821 255.025 96.4255C254.529 96.468 254.014 96.5114 253.478 96.5557C252.943 96.6001 252.405 96.6346 251.866 96.6593L239.908 97.2074L239.418 94.7662L260.815 93.7854L261.43 96.8443L245.97 108.862L245.994 108.98C246.23 108.949 246.555 108.915 246.971 108.876C247.406 108.836 247.882 108.794 248.398 108.751C248.933 108.707 249.479 108.662 250.034 108.617C250.589 108.571 251.107 108.538 251.586 108.516L263.664 107.962L264.16 110.433L242.763 111.414Z" fill="white"/>
<path d="M243.342 126.024L243.2 118.286L244.76 118.325L245.376 120.859L262.501 121.289L263.054 118.785L264.614 118.824L264.755 126.563L263.196 126.523L262.55 123.989L245.425 123.558L244.902 126.064L243.342 126.024Z" fill="white"/>
<path d="M251.077 152.561C248.687 152.336 246.758 151.703 245.289 150.663C243.817 149.642 242.805 148.274 242.254 146.559C241.703 144.843 241.616 142.82 241.994 140.491L242.948 134.597L264.273 136.607L263.218 143.122C262.873 145.254 262.176 147.063 261.127 148.547C260.078 150.032 258.708 151.125 257.018 151.828C255.347 152.533 253.367 152.777 251.077 152.561ZM251.443 149.739C253.334 149.918 254.939 149.748 256.256 149.231C257.569 148.733 258.612 147.909 259.385 146.76C260.174 145.631 260.706 144.218 260.981 142.52L261.542 139.055L244.816 137.479L244.351 140.352C243.887 143.215 244.247 145.423 245.431 146.978C246.631 148.554 248.635 149.475 251.443 149.739Z" fill="white"/>
<path d="M233.263 169.654L237.463 158.445L258.562 162.14L254.362 173.349L252.027 172.94L255.28 164.26L248.69 163.106L245.627 171.28L243.322 170.877L246.385 162.702L238.85 161.382L235.597 170.063L233.263 169.654Z" fill="white"/>
<path d="M242.058 195.487L225.154 183.617L226.517 181.285L251.139 179.945L249.716 182.38L233.961 183.173C233.288 183.22 232.649 183.247 232.045 183.252C231.441 183.258 230.866 183.251 230.321 183.232C229.785 183.234 229.259 183.22 228.743 183.188C229.158 183.393 229.578 183.608 230.002 183.835C230.416 184.078 230.844 184.336 231.287 184.607C231.72 184.895 232.176 185.199 232.657 185.519L243.496 193.026L242.058 195.487Z" fill="white"/>
<path d="M137.41 120.2L115.36 134.13L135.1 148.55C134.82 149.717 134.283 150.93 133.49 152.19C132.697 153.45 131.88 154.36 131.04 154.92L107.94 139.38C107.753 137.887 107.8 136.09 108.08 133.99C108.407 131.843 108.967 129.977 109.76 128.39L133.49 113.97C134.283 114.577 135.053 115.463 135.8 116.63C136.547 117.797 137.083 118.987 137.41 120.2ZM141.603 157.3L156.583 102.7C157.983 102.793 159.337 103.097 160.643 103.61C161.95 104.077 162.953 104.707 163.653 105.5L148.673 160.1C147.273 160.007 145.92 159.703 144.613 159.19C143.307 158.723 142.303 158.093 141.603 157.3ZM197.018 129.51C197.204 131.003 197.134 132.823 196.808 134.97C196.528 137.07 195.991 138.913 195.198 140.5L171.468 154.92C170.674 154.313 169.904 153.427 169.158 152.26C168.411 151.093 167.874 149.903 167.548 148.69L189.598 134.76L169.858 120.34C170.138 119.127 170.674 117.913 171.468 116.7C172.261 115.44 173.078 114.53 173.918 113.97L197.018 129.51Z" fill="white"/>
</g>
<path d="M412.84 80.96C415.12 81.2 416.98 81.74 418.42 82.58C419.14 97.94 419.38 113.48 419.14 129.2C418.9 144.8 417.94 160.34 416.26 175.82C415.3 183.74 412.3 190.46 407.26 195.98C402.22 201.5 395.38 204.68 386.74 205.52C381.7 206 376.48 205.76 371.08 204.8C365.68 203.96 360.76 202.4 356.32 200.12C352 197.72 348.34 194.6 345.34 190.76C342.46 186.8 340.9 182.06 340.66 176.54C340.66 160.7 340.84 144.74 341.2 128.66C341.56 112.58 341.62 96.62 341.38 80.78L341.2 80.6H341.38C343.18 80.6 345.16 80.54 347.32 80.42C349.6 80.3 351.88 80.24 354.16 80.24C356.44 80.24 358.66 80.36 360.82 80.6C362.98 80.72 364.96 81.02 366.76 81.5V81.68C365.44 110.72 365.98 140.18 368.38 170.06C369.22 172.94 370.72 175.04 372.88 176.36C375.16 177.68 377.5 178.28 379.9 178.16C382.3 178.04 384.52 177.2 386.56 175.64C388.6 174.08 389.92 171.92 390.52 169.16C391.12 154.76 391.42 140.12 391.42 125.24C391.54 110.36 391.78 95.96 392.14 82.04C393.7 81.92 395.68 81.74 398.08 81.5C400.6 81.14 403.12 80.9 405.64 80.78C408.16 80.66 410.56 80.72 412.84 80.96ZM525.319 203.54C524.479 203.78 523.039 203.9 520.999 203.9C518.599 203.9 515.839 203.72 512.719 203.36C509.599 203.12 506.839 203 504.439 203C500.479 194.12 496.519 185.54 492.559 177.26C488.719 168.86 485.419 160.82 482.659 153.14L480.859 147.74C480.379 146.42 479.899 145.22 479.419 144.14C479.059 142.94 478.759 142.34 478.519 142.34C478.399 142.34 478.219 143.78 477.979 146.66C477.859 149.54 477.739 153.2 477.619 157.64C477.499 162.08 477.379 167 477.259 172.4C477.259 177.8 477.259 183.02 477.259 188.06C477.259 190.82 477.259 193.52 477.259 196.16C477.259 198.68 477.319 200.96 477.439 203C476.119 203.36 474.799 203.6 473.479 203.72C472.159 203.84 470.839 203.9 469.519 203.9C466.639 203.9 463.699 203.72 460.699 203.36C457.819 203 454.999 202.82 452.239 202.82V190.22C452.239 178.82 452.119 167.96 451.879 157.64C451.759 147.32 451.699 136.52 451.699 125.24C451.699 116.96 451.819 108.8 452.059 100.76C452.299 92.6 452.719 84.68 453.319 77C454.519 76.76 455.779 76.58 457.099 76.46C458.539 76.34 459.979 76.28 461.419 76.28C462.139 76.28 463.339 76.34 465.019 76.46C466.699 76.46 468.379 76.58 470.059 76.82C471.739 76.94 473.179 77.12 474.379 77.36C475.699 77.6 476.359 77.84 476.359 78.08C477.199 80.24 477.979 82.04 478.699 83.48C479.419 84.92 480.079 86.3 480.679 87.62C481.399 88.94 482.119 90.44 482.839 92.12C483.679 93.68 484.639 95.72 485.719 98.24C485.959 98.84 486.499 99.98 487.339 101.66C488.179 103.34 489.139 105.32 490.219 107.6C491.299 109.76 492.439 112.1 493.639 114.62C494.839 117.02 495.919 119.24 496.879 121.28C497.959 123.2 498.859 124.88 499.579 126.32C500.299 127.64 500.719 128.3 500.839 128.3C501.199 128.06 501.499 126.86 501.739 124.7C501.979 122.54 502.099 120.44 502.099 118.4C502.099 113.6 501.979 109.16 501.739 105.08C501.619 100.88 501.559 96.62 501.559 92.3C501.559 89.78 501.559 87.26 501.559 84.74C501.679 82.1 501.799 79.28 501.919 76.28C505.999 75.56 510.319 75.2 514.879 75.2C519.319 75.2 523.279 75.56 526.759 76.28V134.24C526.879 139.28 526.939 144.38 526.939 149.54C526.939 154.7 526.939 159.86 526.939 165.02C526.939 168.5 526.879 171.86 526.759 175.1C526.759 178.34 526.759 181.64 526.759 185C526.759 187.4 526.759 189.8 526.759 192.2C526.879 194.6 526.939 197 526.939 199.4V203C526.699 203.12 526.159 203.3 525.319 203.54ZM577.347 76.46C580.227 76.58 584.367 76.58 589.767 76.46H594.087V77.18C594.087 87.5 593.907 97.88 593.547 108.32C593.307 118.76 593.067 129.26 592.827 139.82C592.707 150.26 592.707 160.7 592.827 171.14C592.947 181.58 593.307 191.9 593.907 202.1C592.947 203.06 590.907 203.6 587.787 203.72C584.787 203.96 581.487 204.02 577.887 203.9C574.407 203.78 571.047 203.6 567.807 203.36C564.567 203.24 562.347 203.36 561.147 203.72C561.987 192.92 562.347 182.06 562.227 171.14C562.107 160.22 561.867 149.42 561.507 138.74C561.267 127.94 561.087 117.32 560.967 106.88C560.967 96.32 561.507 86 562.587 75.92V75.56C563.187 75.44 564.327 75.5 566.007 75.74C567.807 75.86 569.127 75.92 569.967 75.92C572.127 76.04 574.587 76.22 577.347 76.46ZM682.785 82.58C686.385 85.34 689.265 88.46 691.425 91.94C694.065 96.02 696.225 100.28 697.905 104.72C699.705 109.04 701.145 113.6 702.225 118.4C702.825 120.32 703.185 122.24 703.305 124.16C703.545 125.96 703.725 127.82 703.845 129.74C703.605 135.38 703.365 141.08 703.125 146.84C703.005 152.48 702.405 158.06 701.325 163.58C701.325 163.7 701.265 163.76 701.145 163.76C701.145 163.76 701.145 163.82 701.145 163.94C698.745 171.02 695.445 177.74 691.245 184.1C687.165 190.46 682.845 196.46 678.285 202.1C670.365 202.34 662.385 202.52 654.345 202.64C646.305 202.64 638.505 202.64 630.945 202.64C630.945 202.64 630.885 202.7 630.765 202.82C629.445 193.34 628.605 183.56 628.245 173.48C627.885 163.28 627.705 152.96 627.705 142.52C627.705 132.08 627.765 121.58 627.885 111.02C628.125 100.34 628.125 89.78 627.885 79.34C628.005 79.22 628.065 79.1 628.065 78.98C628.185 78.86 628.305 78.74 628.425 78.62C631.785 77.78 635.265 77.24 638.865 77C642.585 76.64 646.305 76.52 650.025 76.64C653.745 76.64 657.405 76.7 661.005 76.82C664.725 76.94 668.325 76.94 671.805 76.82C675.645 77.78 679.305 79.7 682.785 82.58ZM672.345 160.52C673.305 159.44 674.145 158.36 674.865 157.28C676.905 154.16 678.345 150.74 679.185 147.02C680.145 143.3 680.145 139.22 679.185 134.78C678.825 132.98 678.405 131.12 677.925 129.2C677.445 127.16 676.725 125.24 675.765 123.44C674.925 121.64 673.845 120.08 672.525 118.76C671.205 117.32 669.525 116.24 667.485 115.52C665.445 115.28 663.225 115.16 660.825 115.16C658.425 115.04 656.145 115.22 653.985 115.7H653.625H653.445V116.42C653.685 119.66 653.805 123.14 653.805 126.86C653.805 130.58 653.745 134.48 653.625 138.56C653.505 142.52 653.445 146.6 653.445 150.8C653.445 154.88 653.565 158.96 653.805 163.04C655.125 164.24 656.925 164.78 659.205 164.66C661.605 164.54 663.885 164.36 666.045 164.12C666.645 164.24 667.185 164.18 667.665 163.94C668.145 163.58 668.685 163.28 669.285 163.04C670.485 162.32 671.505 161.48 672.345 160.52ZM786.901 178.34C794.581 178.7 802.501 178.76 810.661 178.52V178.88C810.901 182.72 810.961 186.74 810.841 190.94C810.721 195.02 810.181 198.86 809.221 202.46C796.981 202.34 784.501 202.52 771.781 203C759.181 203.36 747.061 203.06 735.421 202.1C735.421 191.66 735.301 181.34 735.061 171.14C734.821 160.82 734.641 150.56 734.521 140.36C734.401 130.16 734.401 119.96 734.521 109.76C734.641 99.56 735.001 89.3 735.601 78.98C740.281 78.74 745.321 78.56 750.721 78.44C756.241 78.2 761.761 78.02 767.281 77.9C772.801 77.78 778.141 77.66 783.301 77.54C788.461 77.42 793.021 77.36 796.981 77.36C800.941 77.36 804.121 77.42 806.521 77.54C808.921 77.66 810.121 77.78 810.121 77.9C810.721 82.1 810.841 86.36 810.481 90.68C810.241 95 810.121 99.26 810.121 103.46V103.64C806.281 104.48 802.381 105.02 798.421 105.26C794.581 105.38 790.681 105.44 786.721 105.44C782.761 105.32 778.801 105.26 774.841 105.26C770.881 105.26 766.921 105.44 762.961 105.8H762.421L762.241 105.98C762.361 109.46 762.181 113.06 761.701 116.78C761.341 120.38 761.581 123.8 762.421 127.04L762.601 127.22C766.201 127.46 769.861 127.58 773.581 127.58C777.301 127.58 781.021 127.64 784.741 127.76V127.94C785.341 132.02 785.521 136.1 785.281 140.18C785.041 144.26 784.981 148.52 785.101 152.96C783.301 153.44 781.261 153.74 778.981 153.86C776.701 153.86 774.481 153.86 772.321 153.86C770.281 153.86 768.421 153.92 766.741 154.04C765.061 154.16 763.921 154.46 763.321 154.94C762.721 158.42 762.481 162.32 762.601 166.64C762.841 170.96 763.081 174.56 763.321 177.44L763.501 177.62C771.421 177.62 779.221 177.86 786.901 178.34ZM907.401 79.34C909.681 79.34 911.841 79.52 913.881 79.88C911.841 90.56 909.621 101 907.221 111.2C904.941 121.4 902.541 131.54 900.021 141.62C897.501 151.7 894.921 161.84 892.281 172.04C889.641 182.12 886.881 192.38 884.001 202.82C883.041 202.82 881.541 202.94 879.501 203.18C877.461 203.42 875.181 203.54 872.661 203.54C870.021 203.54 867.321 203.42 864.561 203.18C861.921 203.06 859.641 202.7 857.721 202.1C852.321 182.66 847.881 162.74 844.401 142.34C840.921 121.82 838.341 101.18 836.661 80.42V80.24C837.381 79.4 838.941 78.8 841.341 78.44C843.741 78.08 846.321 77.9 849.081 77.9C851.841 77.78 854.481 77.78 857.001 77.9C859.521 78.02 861.261 78.2 862.221 78.44C862.701 80.84 863.001 84.74 863.121 90.14C863.241 95.54 863.541 102.02 864.021 109.58C864.501 117.14 865.281 125.48 866.361 134.6C867.561 143.72 869.361 153.14 871.761 162.86C874.041 153.14 875.901 144.26 877.341 136.22C878.781 128.06 880.041 120.56 881.121 113.72C882.201 106.88 883.221 100.58 884.181 94.82C885.141 89.06 886.281 83.66 887.601 78.62C887.601 78.38 887.721 78.26 887.961 78.26C890.001 78.74 892.101 79.04 894.261 79.16C896.421 79.16 898.581 79.16 900.741 79.16C903.021 79.16 905.241 79.22 907.401 79.34Z" fill="white"/>
<defs>
<clipPath id="clip0_1_90">
<rect width="300" height="300" fill="white"/>
</clipPath>
</defs>
</svg>
