<svg width="150" height="150" viewBox="0 0 150 150" fill="none" xmlns="http://www.w3.org/2000/svg">
<circle cx="75" cy="75" r="75" fill="#212EA0"/>
<path d="M54.837 56.54L23.652 76.241L51.57 96.635C51.174 98.285 50.415 100.001 49.293 101.783C48.171 103.565 47.016 104.852 45.828 105.644L13.158 83.666C12.894 81.554 12.96 79.013 13.356 76.043C13.818 73.007 14.61 70.367 15.732 68.123L49.293 47.729C50.415 48.587 51.504 49.841 52.56 51.491C53.616 53.141 54.375 54.824 54.837 56.54ZM60.7677 109.01L81.9537 31.79C83.9337 31.922 85.8477 32.351 87.6957 33.077C89.5437 33.737 90.9627 34.628 91.9527 35.75L70.7667 112.97C68.7867 112.838 66.8727 112.409 65.0247 111.683C63.1767 111.023 61.7577 110.132 60.7677 109.01ZM139.139 69.707C139.403 71.819 139.304 74.393 138.842 77.429C138.446 80.399 137.687 83.006 136.565 85.25L103.004 105.644C101.882 104.786 100.793 103.532 99.7374 101.882C98.6814 100.232 97.9224 98.549 97.4604 96.833L128.645 77.132L100.727 56.738C101.123 55.022 101.882 53.306 103.004 51.59C104.126 49.808 105.281 48.521 106.469 47.729L139.139 69.707Z" fill="white"/>
</svg>
